<svg xmlns="http://www.w3.org/2000/svg" enable-background="new 0 0 24 24" viewBox="0 0 24 24" id="stripe-s">
  <path fill="#646FDE" d="M11.106,18.592c-2.215,0-5.077-0.913-7.324-2.132v6.021C6.269,23.55,8.793,24,11.102,24c5.564,0,9.398-2.39,9.398-7.198c0-7.977-10.229-6.547-10.229-9.557L10.27,7.244c0-1.045,0.873-1.447,2.271-1.447c2.036,0,4.622,0.623,6.659,1.72V1.223C16.98,0.337,14.766,0,12.546,0C7.118,0,3.5,2.83,3.5,7.564c0,7.4,10.172,6.201,10.172,9.392C13.673,18.194,12.599,18.592,11.106,18.592L11.106,18.592z"></path>
  <path fill="#5761C1" d="M3.782,16.46v6.021C6.269,23.55,8.793,24,11.102,24l0,0c0.305,0,0.604-0.007,0.898-0.021v-5.446c-0.275,0.041-0.575,0.059-0.894,0.059C8.891,18.592,6.029,17.679,3.782,16.46L3.782,16.46z M12,0.01C6.876,0.194,3.5,2.991,3.5,7.564c0,5.497,5.613,6.249,8.5,7.58V8.941c-1.031-0.427-1.729-0.91-1.729-1.697L10.27,7.244c0-0.902,0.651-1.325,1.73-1.424V0.01L12,0.01z"></path>
</svg>
